<mxfile host="app.diagrams.net" modified="2024-05-31T09:27:19.289Z" agent="Mozilla/5.0 (Macintosh; Intel Mac OS X 10_15_7) AppleWebKit/537.36 (KHTML, like Gecko) Chrome/124.0.0.0 Safari/537.36 Edg/124.0.0.0" version="24.4.10" etag="TLwO44OhDTDWsEyub8JM" type="github">
  <diagram name="第 1 页" id="hziwK0v8gfeWCI2Ys5g1">
    <mxGraphModel>
      <root>
        <mxCell id="0" />
        <mxCell id="1" parent="0" />
      </root>
    </mxGraphModel>
  </diagram>
</mxfile>
